<?xml version="1.0" encoding="UTF-8" standalone="no"?>
<svg
   width="512"
   height="512"
   version="1.1"
   id="svg20"
   sodipodi:docname="icon.svg"
   inkscape:version="1.4.2 (ebf0e940d0, 2025-05-08)"
   xmlns:inkscape="http://www.inkscape.org/namespaces/inkscape"
   xmlns:sodipodi="http://sodipodi.sourceforge.net/DTD/sodipodi-0.dtd"
   xmlns="http://www.w3.org/2000/svg"
   xmlns:svg="http://www.w3.org/2000/svg">
  <defs
     id="defs6" />
  <sodipodi:namedview
     id="namedview4"
     pagecolor="#505050"
     bordercolor="#ffffff"
     borderopacity="1"
     inkscape:pageshadow="0"
     inkscape:pageopacity="0"
     inkscape:pagecheckerboard="1"
     showgrid="true"
     inkscape:zoom="2.461063"
     inkscape:cx="170.86113"
     inkscape:cy="423.39428"
     inkscape:window-width="1920"
     inkscape:window-height="1080"
     inkscape:window-x="0"
     inkscape:window-y="0"
     inkscape:window-maximized="1"
     inkscape:current-layer="svg20"
     inkscape:showpageshadow="0"
     inkscape:deskcolor="#505050">
    <inkscape:grid
       type="xygrid"
       id="grid847"
       spacingx="16"
       spacingy="16"
       empspacing="4"
       empcolor="#ff3f3f"
       empopacity="0.25098039"
       color="#0098ff"
       opacity="0.44705882"
       originx="0"
       originy="0"
       units="px" />
  </sodipodi:namedview>
  <rect
     style="display:inline;fill:#ffaa00;fill-opacity:0.99215686;stroke-width:8;stroke-linecap:round;stroke-linejoin:round;stop-color:#000000"
     id="rect845"
     width="384"
     height="384"
     x="64"
     y="64"
     ry="32"
     inkscape:label="Square" />
  <circle
     id="path887"
     style="display:inline;fill:#aa2222;stroke:none;fill-opacity:1"
     inkscape:label="Circle"
     r="224"
     cy="256"
     cx="256" />
  <path
     sodipodi:type="star"
     style="fill:#5f8575;stroke-width:159.999;stroke-linecap:round;stroke-dashoffset:9.60003;paint-order:markers stroke fill;fill-opacity:1"
     id="path433"
     inkscape:flatsided="false"
     sodipodi:sides="6"
     sodipodi:cx="256"
     sodipodi:cy="256"
     sodipodi:r1="206.08"
     sodipodi:r2="224"
     sodipodi:arg1="-1.5707963"
     sodipodi:arg2="-1.0471976"
     inkscape:rounded="0.2"
     inkscape:randomized="0"
     d="m 256.00001,49.919998 c 22.53013,-10e-7 92.48831,0.825239 111.99998,12.090306 19.51167,11.26507 55.20546,71.438026 66.47053,90.949696 C 445.73559,172.47167 480,233.46986 480,255.99999 c 0,22.53014 -34.26442,83.52834 -45.52949,103.04002 -11.26506,19.51166 -46.95883,79.68461 -66.4705,90.94967 -19.51167,11.26507 -89.46988,12.09032 -112.00002,12.09032 -22.53013,0 -92.48831,-0.82524 -111.99998,-12.0903 C 124.48834,438.72463 88.794551,378.55167 77.52948,359.04 66.264413,339.52833 31.999999,278.53014 32,256.00001 32.000001,233.46987 66.264417,172.47167 77.529486,152.95999 88.794551,133.44833 124.48832,73.275381 143.99999,62.010315 163.51166,50.745246 233.46987,49.919999 256.00001,49.919998 Z"
     transform="rotate(90,256,256)"
     inkscape:label="Hexagon" />
  <path
     id="path1"
     style="fill:#554466;fill-opacity:1;stroke-width:8;paint-order:stroke fill markers"
     inkscape:transform-center-y="11.2"
     d="M 256.00001,480 C 229.4759,480 160,416 140.13577,395.47342 121.69044,376.41305 91.159738,330.44573 82.963342,305.21981 55.953979,222.09352 69.537203,85.532222 84.3361,74.780197 105.79455,59.189721 229.47591,58.880006 256.00001,58.880005 c 26.5241,-10e-7 150.20544,0.30971 171.66388,15.900185 14.79641,10.750218 28.38433,147.30663 1.37277,230.43961 -8.1964,25.22592 -38.72711,71.19326 -57.17244,90.25363 C 352,416 282.5241,480 256.00001,480 Z"
     sodipodi:nodetypes="sssssssss" />
</svg>
